<?xml version="1.0" encoding="UTF-8" standalone="no"?>
<!-- Created with Inkscape (http://www.inkscape.org/) -->

<svg
   width="600mm"
   height="190.42528mm"
   viewBox="0 0 2125.9843 674.73524"
   id="svg4149"
   version="1.1"
   inkscape:version="1.1.2 (0a00cf5339, 2022-02-04)"
   sodipodi:docname="nuzzle2-with-text.svg"
   inkscape:export-filename="/home/dmimary/Desktop/BlockchainMeetup/path4257.png"
   inkscape:export-xdpi="96"
   inkscape:export-ydpi="96"
   xmlns:inkscape="http://www.inkscape.org/namespaces/inkscape"
   xmlns:sodipodi="http://sodipodi.sourceforge.net/DTD/sodipodi-0.dtd"
   xmlns="http://www.w3.org/2000/svg"
   xmlns:svg="http://www.w3.org/2000/svg"
   xmlns:rdf="http://www.w3.org/1999/02/22-rdf-syntax-ns#"
   xmlns:cc="http://creativecommons.org/ns#"
   xmlns:dc="http://purl.org/dc/elements/1.1/">
  <defs
     id="defs4151">
    <rect
       x="690.90509"
       y="210.64401"
       width="1594.7833"
       height="704.33557"
       id="rect65012" />
  </defs>
  <sodipodi:namedview
     id="base"
     pagecolor="#ffffff"
     bordercolor="#666666"
     borderopacity="1.0"
     inkscape:pageopacity="0.0"
     inkscape:pageshadow="2"
     inkscape:zoom="0.205147"
     inkscape:cx="994.40888"
     inkscape:cy="748.24394"
     inkscape:document-units="px"
     inkscape:current-layer="layer1"
     showgrid="false"
     inkscape:showpageshadow="false"
     showborder="true"
     inkscape:window-width="1440"
     inkscape:window-height="851"
     inkscape:window-x="0"
     inkscape:window-y="0"
     inkscape:window-maximized="1"
     fit-margin-top="0"
     fit-margin-left="0"
     fit-margin-right="0"
     fit-margin-bottom="0"
     inkscape:pagecheckerboard="0"
     width="700mm"
     inkscape:snap-text-baseline="false" />
  <metadata
     id="metadata4154">
    <rdf:RDF>
      <cc:Work
         rdf:about="">
        <dc:format>image/svg+xml</dc:format>
        <dc:type
           rdf:resource="http://purl.org/dc/dcmitype/StillImage" />
      </cc:Work>
    </rdf:RDF>
  </metadata>
  <g
     inkscape:label="Layer 1"
     inkscape:groupmode="layer"
     id="layer1"
     transform="translate(-199.0573,-1010.4838)">
    <path
       style="fill:#9287d9;fill-opacity:1;stroke-width:0.937233;stroke-miterlimit:4;stroke-dasharray:none"
       d="m 548.83951,1666.1766 c -8.09066,-4.0527 -16.58815,-2.731 -32.46525,-12.5932 0,0 -31.70332,-19.8968 -69.50411,-36.877 -126.55249,-20.9267 -181.43066,-131.0646 -175.90958,-228.7516 1.35322,-23.9433 7.09467,-49.9625 0.2843,-67.9007 -17.45745,-45.8469 -16.37671,-54.835 -22.4115,-91.7752 -4.15553,-25.4369 -5.59061,-40.5248 -5.57653,-58.6299 0.0114,-14.6547 0.31241,-18.3075 2.01187,-24.4124 2.78854,-10.0174 6.39179,-16.8286 11.65487,-22.031 13.45438,-13.2994 33.56345,-14.814 70.68184,-5.3235 34.20877,8.7465 69.46016,23.7502 98.29813,41.8375 l 9.38007,5.8833 10.41005,-2.178 c 36.15562,-7.5643 72.41427,-18.178 92.57032,-27.0971 22.61243,-10.0061 35.96939,-19.4068 61.58741,-43.345 20.5089,-19.1641 29.75339,-26.866 42.26085,-35.2087 11.2419,-7.4988 17.49029,-10.7567 27.44202,-14.3084 47.36051,-16.9023 86.88393,7.7453 99.92143,62.3133 2.59161,10.8471 4.48399,27.2006 5.61227,48.4997 2.67098,50.4216 4.65531,59.3556 23.59547,106.2343 17.34785,42.9376 22.3003,61.0033 24.47042,89.2643 -2.88347,162.5985 -49.18607,152.04 -63.02899,214.6548 -17.7473,101.3691 -62.76671,22.7633 -133.40846,61.4004 -55.67695,39.6502 -55.67969,42.6276 -77.8769,40.3441 z m 36.60766,-51.7779 c 19.62084,-2.8798 42.12253,-10.6556 77.98159,-26.9476 50.10621,-22.765 69.97291,-35.1175 89.5614,-55.6866 14.5931,-15.3235 23.98377,-31.3217 32.06685,-54.6298 2.23633,-6.4487 5.40453,-15.4494 7.04046,-20.0017 3.64856,-10.1529 7.78727,-30.0722 9.98991,-48.0807 2.30496,-18.8448 2.3181,-52.7481 0.0273,-70.3305 -6.04095,-46.3649 -14.82535,-68.3946 -42.5791,-106.7804 -10.11786,-13.9938 -10.16419,-14.1694 -6.62721,-25.1154 4.85197,-15.0153 5.70478,-21.397 5.65287,-42.3004 -0.0435,-17.5322 -0.30923,-20.7761 -2.56045,-31.2606 -8.97371,-41.7932 -29.37354,-70.3849 -53.77697,-75.372 -7.06619,-1.4441 -15.15778,-0.1475 -25.83662,4.1396 -8.44264,3.3896 -26.67879,13.8244 -36.35516,20.8028 -18.37553,13.2519 -38.66468,33.9424 -50.85262,51.8583 -8.16968,12.0092 -14.62695,19.4297 -18.73485,21.5294 -1.41593,0.7238 -5.14322,1.316 -8.28286,1.316 -21.31977,0 -86.23948,13.7541 -100.25447,21.2402 -9.02733,4.8219 -10.33635,9.5798 -4.71743,17.146 4.22862,5.6943 10.2783,19.3443 12.67555,28.6002 3.94301,15.2242 0.73429,60.9238 -6.21941,88.5792 -4.22121,16.7881 -8.86643,27.4045 -22.41759,51.2342 -11.88812,20.9052 -62.49612,37.6617 -79.70627,51.3959 -12.19618,9.7329 -72.05021,19.0065 -70.16153,27.2068 10.511,61.2119 42.99111,104.9167 93.61374,134.794 33.45347,18.0756 128.79341,34.3762 156.41542,37.4512 9.12708,1.016 34.90753,0.5549 44.05747,-0.7881 z m -116.02295,-54.506 c -1.81628,-1.4122 -2.48306,-2.7848 -2.48306,-5.1112 0,-2.6372 1.19987,-4.5136 7.02363,-10.9838 8.82196,-9.8013 11.50825,-11.1907 18.99301,-9.8229 9.52713,1.7408 13.30867,4.7888 12.05708,9.7181 -0.78102,3.076 -3.53142,4.8283 -8.85973,5.6445 -3.4162,0.5233 -5.06529,1.5108 -8.48148,5.0782 -7.08618,7.3999 -13.35624,9.2817 -18.24945,5.4771 z m 105.52292,-17.6901 c -21.25612,-2.4365 -33.57488,-13.3988 -28.51318,-25.3736 1.50098,-3.551 4.41745,-5.3676 7.38548,-4.6004 0.91443,0.2363 4.47814,2.8866 7.91936,5.8895 7.58265,6.6166 13.98958,9.2386 22.57511,9.2386 7.45677,0 13.39495,-2.4969 17.44319,-7.3348 3.28287,-3.9231 7.47946,-16.142 7.49539,-21.8236 0.019,-6.7952 -3.07467,-25.2675 -4.50969,-26.9269 -0.76874,-0.889 -4.54929,-2.2531 -8.56912,-3.0918 -14.55955,-3.0379 -19.52359,-4.8769 -22.64219,-8.3878 -5.56175,-6.2616 -3.49618,-14.739 5.8398,-23.9674 13.47169,-13.3165 38.01986,-18.6673 52.81488,-11.5121 10.30415,4.9832 10.53259,10.3855 1.18019,27.9102 -6.86773,12.8689 -8.63798,19.3988 -7.7034,28.4157 0.81712,7.8837 2.37338,11.3033 6.78556,14.91 4.72767,3.8647 11.21803,5.7257 19.9689,5.7257 8.771,0 13.70732,-1.4266 17.64794,-5.1003 3.49209,-3.2556 4.81692,-7.2558 5.715,-17.2565 0.34508,-3.8425 1.0431,-7.5074 1.55118,-8.1442 2.88843,-3.62 13.83495,-3.0565 17.07424,0.8789 1.56706,1.9038 1.69287,3.1774 1.1318,11.4572 -0.44076,6.5044 -1.20564,10.4397 -2.53475,13.0414 -1.77022,3.4652 -9.94276,11.1319 -18.86692,17.6991 l -3.79755,2.7946 -18.53299,-0.044 c -10.19314,-0.024 -20.49197,-0.3866 -22.88629,-0.806 -4.13731,-0.7247 -4.53768,-0.5979 -8.06865,2.5554 -2.04343,1.8248 -4.91446,5.5411 -6.38007,8.2584 -3.34536,6.2022 -6.60777,9.7376 -11.08761,12.0154 -6.42103,3.2647 -18.22053,4.7498 -28.43561,3.5789 z m -117.44017,-18.8049 c -1.02707,-1.6651 -1.86899,-4.1182 -1.87092,-5.4514 -0.012,-8.2662 16.63635,-18.6172 27.92132,-17.3599 5.31791,0.5925 8.64612,2.8237 10.39948,6.9718 2.78877,6.5975 -2.08335,10.4832 -13.1445,10.4832 -5.45669,0 -6.22147,0.2516 -8.74735,2.8778 -6.03357,6.2731 -11.6298,7.2259 -14.55803,2.4785 z m -6.35078,-31.1246 c -0.6479,-0.2584 -1.17799,-1.7287 -1.17799,-3.2674 0,-4.5349 8.37176,-11.8438 20.03386,-17.4907 12.03511,-5.8274 13.84725,-6.2623 16.67171,-4.0016 2.84424,2.2766 3.07765,8.8226 0.40867,11.4607 -2.13401,2.1095 -30.18543,13.9073 -32.8735,13.826 -1.03662,-0.032 -2.41486,-0.2685 -3.06275,-0.527 z m 310.28077,-17.1648 c -5.23411,-2.6094 -6.15445,-2.7751 -12.38397,-2.2296 -6.17406,0.5405 -6.89283,0.4161 -8.70629,-1.508 -3.01897,-3.2031 -3.36891,-5.4145 -1.29265,-8.1686 1.71816,-2.2791 2.43099,-2.4693 10.2301,-2.7299 18.54753,-0.6198 32.1646,4.4913 28.75311,10.7922 -1.16005,2.1426 -7.73169,6.7317 -9.58305,6.692 -0.74961,-0.016 -3.90737,-1.2978 -7.01725,-2.8481 z m -305.87693,-38.9699 c -1.53716,-1.5195 -2.75467,-3.7261 -2.75467,-4.9926 0,-3.4505 5.39015,-13.0448 10.53337,-18.7489 8.53949,-9.4707 19.78367,-12.5267 36.37415,-9.8861 9.33559,1.4858 13.774,3.2699 16.70708,6.7156 3.04497,3.577 3.00089,6.6388 -0.13059,9.0736 -3.18018,2.4728 -7.851,2.473 -14.43157,7e-4 -6.56096,-2.4649 -13.80741,-2.4991 -18.58926,-0.088 -4.48529,2.2619 -11.70164,9.7484 -14.35824,14.8957 -3.33405,6.46 -8.65777,7.6682 -13.35027,3.0298 z m 278.86355,-1.63 c -3.48731,-0.913 -2.6857,-6.5148 1.29129,-9.0238 3.20374,-2.0211 31.70094,-9.1515 33.8634,-8.4731 2.51905,0.7902 4.99201,6.131 4.2295,9.1342 -0.75031,2.955 -5.05071,4.3109 -13.78439,4.3463 -4.05713,0.017 -8.35299,0.8032 -12.72222,2.33 -6.28375,2.1957 -9.38201,2.6015 -12.87758,1.6864 z m -14.36786,-25.5275 c -2.65901,-3.1237 -3.10116,-6.1384 -1.26175,-8.6032 2.18984,-2.9343 31.09176,-12.7506 37.54131,-12.7506 2.95345,0 4.93378,4.0692 4.23192,8.6956 -0.52813,3.4812 -1.13429,4.3309 -4.37363,6.1305 -2.0683,1.149 -6.61151,2.4784 -10.09602,2.9541 -3.7533,0.5124 -8.54963,2.001 -11.76798,3.6523 -7.19538,3.6919 -11.08237,3.6704 -14.27385,-0.078 z m -54.38269,-30.2062 c -5.87897,-3.1581 -6.97746,-12.1906 -2.32728,-19.1365 3.79329,-5.666 24.13898,-19.8616 31.98522,-22.3168 9.56539,-2.993 27.79683,5.5473 30.75478,14.4068 1.4431,4.3222 -0.6335,8.3357 -5.06013,9.7799 -4.15399,1.3551 -7.34403,0.514 -12.33612,-3.2527 -7.78137,-5.8712 -10.16053,-6.3068 -17.02518,-3.1172 -5.50173,2.5563 -10.06714,7.8948 -12.58195,14.7124 -3.63064,9.8426 -7.23457,12.2411 -13.40934,8.9241 z m 24.14255,-185.7204 c -3.10987,-0.8874 -14.55987,-6.0306 -25.44444,-11.4294 -10.88456,-5.3986 -22.2573,-10.8099 -25.27275,-12.025 -3.01545,-1.215 -7.1406,-3.6119 -9.16698,-5.3265 -7.92904,-6.7088 -6.95592,-14.4909 3.78088,-30.2362 14.96129,-21.9404 31.5812,-36.5815 48.65111,-42.8587 8.30956,-3.0557 21.92955,-2.9806 27.46135,0.1514 7.35451,4.1641 9.94811,9.8985 14.50779,32.0768 5.90821,28.7375 3.23274,52.288 -7.24948,63.8126 -6.74939,7.4203 -15.29912,9.25 -27.26748,5.835 z m 16.5173,-17.3807 c 3.12513,-3.7222 -1.88342,-42.3698 -7.71742,-59.5502 -2.99912,-8.832 -4.79383,-10.7517 -10.04203,-10.7412 -8.44681,0.017 -17.68734,7.4333 -31.18876,25.0324 -10.21241,13.312 -10.15119,15.09 0.81467,23.6612 10.04753,7.8534 20.9524,14.1349 32.95035,18.9802 10.81961,4.3694 13.34654,4.8051 15.18319,2.6176 z m -387.14566,99.1989 c 3.95867,-1.0868 15.79167,-9.5619 22.96625,-16.4491 19.34901,-18.574 24.2776,-35.7477 15.51509,-54.0626 -8.69905,-18.1822 -39.52003,-36.5847 -61.57434,-36.7646 -15.86688,-0.1294 -23.26356,6.2743 -23.27944,20.1543 -0.007,5.6739 5.82266,30.8183 9.62422,41.5147 5.00067,14.0704 16.76744,35.2506 22.9729,41.3512 2.57395,2.5305 7.22713,5.1156 9.33383,5.1854 0.51831,0.017 2.51699,-0.401 4.44149,-0.9293 z"
       id="path4257"
       inkscape:connector-curvature="0"
       sodipodi:nodetypes="cscscsssssscsssssssscccccssssssssssscsscsssssssccsccssscsssscscsssscsssssscsssccsssccssssccsscsssscssscccccsssscccsssssscsccsscsccscsssscsccsssscsssssscsssssssssssssscssscsscc"
       inkscape:export-xdpi="96"
       inkscape:export-ydpi="96" />
    <text
       xml:space="preserve"
       transform="matrix(0.93750001,0,0,0.93750001,288.1703,945.1288)"
       id="text65010"
       style="font-style:normal;font-weight:normal;font-size:400px;line-height:1.25;font-family:sans-serif;white-space:pre;shape-inside:url(#rect65012);fill:#9287d9;fill-opacity:1;stroke:none"><tspan
         x="690.9043"
         y="574.5946"
         id="tspan132672"><tspan
           style="font-weight:500;font-family:'Noto Sans Mono';-inkscape-font-specification:'Noto Sans Mono Medium'"
           id="tspan132670">nuzzle</tspan></tspan></text>
  </g>
</svg>
